<?xml encoding="UTF-8" standalone="no" version="1.0" ?>
<!-- Created with Inkscape (http://www.inkscape.org/) -->

<svg
   aria-labelledby="title"
   height="108pt"
   id="svg5"
   inkscape:export-xdpi="254"
   inkscape:export-ydpi="254"
   inkscape:version="1.1.1 (3bf5ae0d25, 2021-09-20)"
   role="img"
   sodipodi:docname="logo.svg"
   version="1.1"
   viewBox="0 0 38.100001 38.1"
   width="108pt"
   xmlns="http://www.w3.org/2000/svg"
   xmlns:inkscape="http://www.inkscape.org/namespaces/inkscape"
   xmlns:sodipodi="http://sodipodi.sourceforge.net/DTD/sodipodi-0.dtd"
   xmlns:svg="http://www.w3.org/2000/svg"
   xmlns:xlink="http://www.w3.org/1999/xlink">
  <sodipodi:namedview
     bordercolor="#666666"
     borderopacity="1.0"
     id="namedview7"
     inkscape:current-layer="layer1" 
     inkscape:cx="84.503898"
     inkscape:cy="108.29796"
     inkscape:document-units="mm"
     inkscape:pagecheckerboard="false"
     inkscape:pageopacity="0.0"
     inkscape:pageshadow="2"
     inkscape:window-height="991"
     inkscape:window-maximized="1"
     inkscape:window-width="1920"
     inkscape:window-x="-9"
     inkscape:window-y="-9"
     inkscape:zoom="2.8578563"
     pagecolor="#ffffff"
     showgrid="false"
     units="pt"/>
  <span id="title">SabersProps</span>
  <defs
     id="defs2">
    <linearGradient
       id="linearGradient1198"
       inkscape:collect="always">
      <stop
         id="stop1194" 
         offset="0"
         style="stop-color:#000000;stop-opacity:1;"/>
      <stop
         id="stop1196" 
         offset="1"
         style="stop-color:#434343;stop-opacity:1"/>
    </linearGradient>
    <linearGradient
       gradientUnits="userSpaceOnUse" 
       id="linearGradient1206"
       inkscape:collect="always"
       x1="0"
       x2="38.099998"
       xlink:href="#linearGradient1198"
       y1="0"
       y2="38.099998"/>
  </defs>
  <rect
     height="38.099998"
     id="rect1161"
     style="display:inline;fill:url(#linearGradient1206);fill-opacity:1;stroke-width:0.1"
     width="38.099998"
     x="0"
     y="0" />
  <g
     id="layer1"
     inkscape:groupmode="layer"
     inkscape:label="Calque 1">
    <g
       id="g972"
       style="display:inline;fill:#10b981;fill-opacity:1"
       transform="matrix(0.03681159,0,0,0.03681159,10.583325,10.583297)">
	<path
   d="M 457.071,87.064 372.936,2.929 c -3.906,-3.904 -10.236,-3.904 -14.143,0 -3.86,3.86 -3.898,10.088 -0.126,14.003 L 337.979,37.62 c -3.905,3.905 -3.905,10.237 0,14.143 L 352.16,65.944 307.872,110.233 293.69,96.051 c -3.906,-3.904 -10.236,-3.904 -14.143,0 -3.905,3.905 -3.905,10.237 0,14.143 l 70.259,70.259 c 1.953,1.952 4.512,2.929 7.071,2.929 2.559,0 5.118,-0.977 7.071,-2.929 3.905,-3.905 3.905,-10.237 0,-14.143 l -14.182,-14.182 44.289,-44.288 14.181,14.181 c 1.953,1.952 4.512,2.929 7.071,2.929 2.559,0 5.118,-0.977 7.071,-2.929 l 20.688,-20.688 c 1.935,1.864 4.431,2.803 6.932,2.803 2.56,0 5.118,-0.977 7.071,-2.929 3.908,-3.905 3.908,-10.237 0.002,-14.143 z m -121.446,50.921 -13.61,-13.61 44.288,-44.289 13.611,13.611 z m 79.684,-37.177 -56.116,-56.116 13.61,-13.61 56.116,56.116 z"
   id="path962"
   style="fill:#10b981;fill-opacity:1" />

	<path
   d="m 210.43,179.31 -22.203,-22.202 c -3.905,-3.904 -10.237,-3.904 -14.142,0 L 106.993,224.2 c -1.875,1.876 -2.929,4.419 -2.929,7.071 0,2.652 1.054,5.196 2.929,7.071 l 15.131,15.131 -52.949,52.949 -6.806,-6.806 c -1.875,-1.875 -4.419,-2.929 -7.071,-2.929 -2.652,0 -5.196,1.054 -7.071,2.929 l -38.36,38.361 c -3.905,3.905 -3.905,10.237 0,14.143 l 6.805,6.805 -13.743,13.745 c -3.905,3.905 -3.905,10.237 0,14.143 l 70.259,70.259 c 1.875,1.875 4.419,2.929 7.071,2.929 2.652,0 5.196,-1.054 7.071,-2.929 l 13.744,-13.744 6.806,6.806 c 1.953,1.952 4.512,2.929 7.071,2.929 2.559,0 5.119,-0.977 7.071,-2.929 l 38.36,-38.36 c 3.905,-3.905 3.905,-10.237 0,-14.143 l -6.805,-6.806 127.113,-127.113 c 1.875,-1.876 2.929,-4.419 2.929,-7.071 0,-2.652 -1.054,-5.195 -2.929,-7.071 z m -82.223,51.961 52.95,-52.95 8.06,8.061 -52.95,52.95 z M 106.498,372.03 82.28,396.248 63.751,377.72 87.97,353.502 Z M 55.299,320.831 73.828,339.359 49.609,363.577 37.89,351.859 c -10e-4,-10e-4 -0.003,-0.003 -0.004,-0.004 -0.001,-0.001 -0.003,-0.002 -0.004,-0.004 l -6.801,-6.801 z m 24.96,115.026 -56.117,-56.116 6.673,-6.673 56.116,56.116 z m 34.692,-6.938 -18.529,-18.528 24.218,-24.218 18.529,18.529 z m 24.483,-52.237 -11.719,-11.719 c -0.001,-0.001 -0.002,-0.002 -0.003,-0.003 -0.001,-10e-4 -0.002,-0.002 -0.003,-0.003 L 95.043,332.29 c 0,0 -0.001,-0.001 -0.001,-0.002 0,0 -0.001,-0.001 -0.002,-0.001 l -11.721,-11.721 60.018,-60.018 c 0.001,-10e-4 0.002,-10e-4 0.003,-0.002 0.001,-10e-4 0.002,-0.002 0.002,-0.003 l 60.018,-60.018 56.117,56.116 z"
   id="path964"
   style="display:inline;fill:#10b981;fill-opacity:1" />

	<path
   d="m 231.245,158.496 c -3.904,-3.903 -10.236,-3.904 -14.142,0 -3.905,3.905 -3.905,10.237 0,14.143 l 70.258,70.259 c 1.953,1.952 4.512,2.929 7.071,2.929 2.559,0 5.118,-0.977 7.071,-2.929 3.905,-3.905 3.905,-10.237 0,-14.143 z"
   id="path966"
   style="display:inline;fill:#10b981;fill-opacity:1" />

	<path
   d="m 252.061,137.681 c -3.906,-3.904 -10.236,-3.904 -14.143,0 -3.905,3.905 -3.905,10.237 0,14.143 l 70.259,70.259 c 1.953,1.952 4.512,2.929 7.071,2.929 2.559,0 5.118,-0.977 7.071,-2.929 3.905,-3.905 3.905,-10.237 0,-14.143 z"
   id="path968"
   style="display:inline;fill:#10b981;fill-opacity:1" />

	<path
   d="m 272.875,116.865 c -3.906,-3.904 -10.236,-3.904 -14.143,0 -3.905,3.905 -3.905,10.237 0,14.143 l 70.26,70.26 c 1.953,1.952 4.512,2.929 7.071,2.929 2.559,0 5.118,-0.977 7.071,-2.929 3.905,-3.905 3.905,-10.237 0,-14.143 z"
   id="path970"
   style="display:inline;fill:#10b981;fill-opacity:1" />

</g>
  </g>
</svg>
