<?xml version="1.0" encoding="UTF-8" standalone="no"?>
<!-- Created with Inkscape (http://www.inkscape.org/) -->

<svg
   width="1242"
   height="2436"
   viewBox="0 0 328.61249 644.52502"
   version="1.1"
   id="svg1321"
   inkscape:version="1.1.2 (b8e25be833, 2022-02-05)"
   sodipodi:docname="splash.svg"
   inkscape:export-filename="C:\Users\Ocleos\Downloads\splash.png"
   inkscape:export-xdpi="96"
   inkscape:export-ydpi="96"
   xmlns:inkscape="http://www.inkscape.org/namespaces/inkscape"
   xmlns:sodipodi="http://sodipodi.sourceforge.net/DTD/sodipodi-0.dtd"
   xmlns="http://www.w3.org/2000/svg"
   xmlns:svg="http://www.w3.org/2000/svg">
  <sodipodi:namedview
     id="namedview1323"
     pagecolor="#ffffff"
     bordercolor="#666666"
     borderopacity="1.0"
     inkscape:pageshadow="2"
     inkscape:pageopacity="0.0"
     inkscape:pagecheckerboard="0"
     inkscape:document-units="mm"
     showgrid="false"
     units="px"
     inkscape:zoom="0.35723204"
     inkscape:cx="39.190213"
     inkscape:cy="1193.9019"
     inkscape:window-width="1920"
     inkscape:window-height="991"
     inkscape:window-x="-9"
     inkscape:window-y="-9"
     inkscape:window-maximized="1"
     inkscape:current-layer="layer1" />
  <defs
     id="defs1318" />
  <g
     inkscape:label="Calque 1"
     inkscape:groupmode="layer"
     id="layer1">
    <rect
       style="display:inline;fill:#000000;stroke-width:0.1;fill-opacity:1"
       id="rect1404"
       width="328.61249"
       height="644.52502"
       x="1.4812967"
       y="1.4812967" />
    <g
       id="g4689"
       transform="translate(2.502484e-4,-15.451001)">
      <g
         style="display:inline;fill:#10b981;fill-opacity:1"
         id="g1446"
         transform="matrix(0.16105072,0,0,0.16105072,127.26454,285.22067)">
        <g
           id="g1433"
           style="fill:#10b981;fill-opacity:1">
          <path
             d="M 457.071,87.064 372.936,2.929 c -3.906,-3.904 -10.236,-3.904 -14.143,0 -3.86,3.86 -3.898,10.088 -0.126,14.003 L 337.979,37.62 c -3.905,3.905 -3.905,10.237 0,14.143 L 352.16,65.944 307.872,110.233 293.69,96.051 c -3.906,-3.904 -10.236,-3.904 -14.143,0 -3.905,3.905 -3.905,10.237 0,14.143 l 70.259,70.259 c 1.953,1.952 4.512,2.929 7.071,2.929 2.559,0 5.118,-0.977 7.071,-2.929 3.905,-3.905 3.905,-10.237 0,-14.143 l -14.182,-14.182 44.289,-44.288 14.181,14.181 c 1.953,1.952 4.512,2.929 7.071,2.929 2.559,0 5.118,-0.977 7.071,-2.929 l 20.688,-20.688 c 1.935,1.864 4.431,2.803 6.932,2.803 2.56,0 5.118,-0.977 7.071,-2.929 3.908,-3.905 3.908,-10.237 0.002,-14.143 z m -121.446,50.921 -13.61,-13.61 44.288,-44.289 13.611,13.611 z m 79.684,-37.177 -56.116,-56.116 13.61,-13.61 56.116,56.116 z"
             id="path1423"
             style="fill:#10b981;fill-opacity:1" />
          <path
             d="m 210.43,179.31 -22.203,-22.202 c -3.905,-3.904 -10.237,-3.904 -14.142,0 L 106.993,224.2 c -1.875,1.876 -2.929,4.419 -2.929,7.071 0,2.652 1.054,5.196 2.929,7.071 l 15.131,15.131 -52.949,52.949 -6.806,-6.806 c -1.875,-1.875 -4.419,-2.929 -7.071,-2.929 -2.652,0 -5.196,1.054 -7.071,2.929 l -38.36,38.361 c -3.905,3.905 -3.905,10.237 0,14.143 l 6.805,6.805 -13.743,13.745 c -3.905,3.905 -3.905,10.237 0,14.143 l 70.259,70.259 c 1.875,1.875 4.419,2.929 7.071,2.929 2.652,0 5.196,-1.054 7.071,-2.929 l 13.744,-13.744 6.806,6.806 c 1.953,1.952 4.512,2.929 7.071,2.929 2.559,0 5.119,-0.977 7.071,-2.929 l 38.36,-38.36 c 3.905,-3.905 3.905,-10.237 0,-14.143 l -6.805,-6.806 127.113,-127.113 c 1.875,-1.876 2.929,-4.419 2.929,-7.071 0,-2.652 -1.054,-5.195 -2.929,-7.071 z m -82.223,51.961 52.95,-52.95 8.06,8.061 -52.95,52.95 z M 106.498,372.03 82.28,396.248 63.751,377.72 87.97,353.502 Z M 55.299,320.831 73.828,339.359 49.609,363.577 37.89,351.859 c -10e-4,-10e-4 -0.003,-0.003 -0.004,-0.004 -0.001,-0.001 -0.003,-0.002 -0.004,-0.004 l -6.801,-6.801 z m 24.96,115.026 -56.117,-56.116 6.673,-6.673 56.116,56.116 z m 34.692,-6.938 -18.529,-18.528 24.218,-24.218 18.529,18.529 z m 24.483,-52.237 -11.719,-11.719 c -0.001,-0.001 -0.002,-0.002 -0.003,-0.003 -0.001,-10e-4 -0.002,-0.002 -0.003,-0.003 L 95.043,332.29 c 0,0 -0.001,-0.001 -0.001,-0.002 0,0 -0.001,-0.001 -0.002,-0.001 l -11.721,-11.721 60.018,-60.018 c 0.001,-10e-4 0.002,-10e-4 0.003,-0.002 0.001,-10e-4 0.002,-0.002 0.002,-0.003 l 60.018,-60.018 56.117,56.116 z"
             id="path1425"
             style="fill:#10b981;fill-opacity:1" />
          <path
             d="m 231.245,158.496 c -3.904,-3.903 -10.236,-3.904 -14.142,0 -3.905,3.905 -3.905,10.237 0,14.143 l 70.258,70.259 c 1.953,1.952 4.512,2.929 7.071,2.929 2.559,0 5.118,-0.977 7.071,-2.929 3.905,-3.905 3.905,-10.237 0,-14.143 z"
             id="path1427"
             style="fill:#10b981;fill-opacity:1" />
          <path
             d="m 252.061,137.681 c -3.906,-3.904 -10.236,-3.904 -14.143,0 -3.905,3.905 -3.905,10.237 0,14.143 l 70.259,70.259 c 1.953,1.952 4.512,2.929 7.071,2.929 2.559,0 5.118,-0.977 7.071,-2.929 3.905,-3.905 3.905,-10.237 0,-14.143 z"
             id="path1429"
             style="fill:#10b981;fill-opacity:1" />
          <path
             d="m 272.875,116.865 c -3.906,-3.904 -10.236,-3.904 -14.143,0 -3.905,3.905 -3.905,10.237 0,14.143 l 70.26,70.26 c 1.953,1.952 4.512,2.929 7.071,2.929 2.559,0 5.118,-0.977 7.071,-2.929 3.905,-3.905 3.905,-10.237 0,-14.143 z"
             id="path1431"
             style="fill:#10b981;fill-opacity:1" />
        </g>
      </g>
      <g
         aria-label="SabersProps"
         id="text3236"
         style="font-size:16.9333px;line-height:1.25;display:inline;fill:#10b981;stroke-width:0.264583"
         transform="matrix(0.99999493,0,0,1,0.00537276,-32.06982)">
        <path
           d="m 119.06413,407.06989 q 0.8636,0.0169 1.81187,0.1016 0.9652,0.0847 1.87959,0.32173 l -0.13546,1.43933 q -0.72814,-0.0169 -1.69333,-0.0339 -0.94827,-0.0339 -1.8288,-0.0339 -0.54187,0 -0.93133,0.0339 -0.37253,0.0339 -0.6096,0.16933 -0.23707,0.13546 -0.3556,0.42333 -0.1016,0.27093 -0.1016,0.762 0,0.762 0.3048,1.08373 0.32173,0.32173 1.03293,0.508 l 2.30293,0.67733 q 1.38853,0.42333 1.91346,1.23613 0.52494,0.79587 0.52494,2.1336 0,0.99906 -0.23707,1.64253 -0.23707,0.64346 -0.72813,0.99906 -0.49107,0.3556 -1.28693,0.508 -0.79587,0.1524 -1.91347,0.1524 -0.57573,0 -1.59173,-0.0677 -0.99906,-0.0677 -2.28599,-0.33867 l 0.13546,-1.52399 q 0.99907,0.0339 1.6764,0.0677 0.67733,0.0169 1.1684,0.0169 0.49106,0 0.9144,0 0.77893,0 1.21919,-0.1016 0.44027,-0.1016 0.6096,-0.42333 0.18627,-0.32173 0.18627,-0.93133 0,-0.52493 -0.13547,-0.8128 -0.11853,-0.3048 -0.4064,-0.47413 -0.28786,-0.16934 -0.74506,-0.28787 l -2.3876,-0.72813 q -1.32079,-0.4064 -1.86266,-1.20226 -0.52493,-0.79587 -0.52493,-2.1336 0,-0.99907 0.23706,-1.6256 0.23707,-0.64346 0.72814,-0.9652 0.49106,-0.33866 1.25306,-0.45719 0.77893,-0.13547 1.86266,-0.13547 z"
           style="font-family:'Exo 2';-inkscape-font-specification:'Exo 2, '"
           id="path4629" />
        <path
           d="m 129.24106,410.45655 q 0.99906,0 1.69333,0.27093 0.69426,0.254 1.03293,0.88053 0.3556,0.62654 0.3556,1.7272 v 5.63879 h -1.6256 l -0.28786,-1.79493 -0.1524,-0.23707 v -3.62372 q 0,-0.6604 -0.3048,-0.94827 -0.3048,-0.3048 -1.1684,-0.3048 -0.64346,0 -1.6256,0.0508 -0.96519,0.0508 -1.94733,0.13547 l -0.18626,-1.40546 q 0.59266,-0.11854 1.33773,-0.2032 0.74506,-0.0847 1.50706,-0.13547 0.762,-0.0508 1.3716,-0.0508 z m 2.20133,3.40359 -0.0169,1.27 h -3.81 q -0.508,0.0169 -0.72813,0.27093 -0.22013,0.254 -0.22013,0.69427 v 0.4572 q 0,0.508 0.27093,0.762 0.27093,0.254 0.84667,0.254 0.45719,0 1.01599,-0.16934 0.5588,-0.18626 1.10067,-0.54186 0.5588,-0.3556 0.99906,-0.84667 v 1.0668 q -0.16933,0.254 -0.49106,0.6096 -0.32174,0.33866 -0.79587,0.67733 -0.4572,0.33867 -1.0668,0.5588 -0.59266,0.22013 -1.32079,0.22013 -0.74507,0 -1.33773,-0.254 -0.59267,-0.27093 -0.93134,-0.77893 -0.33866,-0.52493 -0.33866,-1.28693 v -0.88053 q 0,-0.98213 0.64346,-1.524 0.6604,-0.5588 1.79493,-0.5588 z"
           style="font-family:'Exo 2';-inkscape-font-specification:'Exo 2, '"
           id="path4631" />
        <path
           d="m 139.46879,410.45655 q 1.59173,0 2.31986,0.99906 0.72813,0.99907 0.72813,3.31893 0,0.99907 -0.18627,1.81186 -0.16933,0.8128 -0.60959,1.40547 -0.42334,0.57573 -1.18533,0.88053 -0.762,0.3048 -1.94733,0.3048 -0.42334,0 -0.9652,-0.0339 -0.54187,-0.0339 -1.10067,-0.11853 -0.5588,-0.0847 -1.08373,-0.18627 -0.508,-0.11853 -0.9144,-0.28786 l 1.64253,-1.25307 q 0.37254,0.11854 0.77894,0.2032 0.42333,0.0677 0.82973,0.1016 0.42333,0.0169 0.77893,0.0169 0.67733,-0.0169 1.0668,-0.27094 0.4064,-0.254 0.59266,-0.8636 0.18627,-0.62653 0.18627,-1.71026 0,-1.016 -0.1524,-1.59173 -0.13547,-0.59267 -0.508,-0.82973 -0.37253,-0.23707 -1.0668,-0.23707 -0.6096,0 -1.13453,0.28787 -0.508,0.28786 -1.18533,0.77893 l -0.13547,-1.10066 q 0.4572,-0.49107 0.9652,-0.8636 0.52493,-0.37253 1.10067,-0.5588 0.59266,-0.2032 1.18533,-0.2032 z m -2.8956,-3.33586 0.0169,2.87866 q 0,0.54187 -0.0508,1.04986 -0.0339,0.49107 -0.16934,0.9652 l 0.2032,0.23707 v 6.40079 l -2.04893,-0.1016 v -11.42998 z"
           style="font-family:'Exo 2';-inkscape-font-specification:'Exo 2, '"
           id="path4633" />
        <path
           d="m 148.15556,410.45655 q 2.01507,0 2.8956,0.7112 0.88053,0.69426 0.89746,2.06586 0.0169,1.13453 -0.54186,1.7272 -0.54187,0.57573 -1.81186,0.57573 h -4.74133 v -1.27 h 4.18253 q 0.57573,0 0.72813,-0.3048 0.16933,-0.3048 0.16933,-0.74506 -0.0169,-0.69427 -0.4064,-0.9652 -0.37253,-0.27093 -1.28693,-0.27093 -0.79586,0 -1.23613,0.22013 -0.44027,0.22013 -0.62653,0.79586 -0.16933,0.57574 -0.16933,1.65947 0,1.15146 0.22013,1.77799 0.22013,0.62654 0.72813,0.8636 0.508,0.22014 1.35466,0.22014 0.62654,0 1.43933,-0.0508 0.82974,-0.0508 1.59173,-0.13547 l 0.2032,1.30386 q -0.45719,0.18627 -1.04986,0.3048 -0.59267,0.11854 -1.23613,0.16934 -0.62653,0.0677 -1.18533,0.0677 -1.524,0 -2.45533,-0.44027 -0.9144,-0.4572 -1.33773,-1.42239 -0.4064,-0.9652 -0.4064,-2.4892 0,-1.64253 0.4064,-2.59079 0.42333,-0.9652 1.3208,-1.3716 0.91439,-0.4064 2.35372,-0.4064 z"
           style="font-family:'Exo 2';-inkscape-font-specification:'Exo 2, '"
           id="path4635" />
        <path
           d="m 155.38609,410.65975 0.27093,1.6256 0.18626,0.23706 v 6.45159 h -2.04892 v -8.31425 z m 4.06399,-0.2032 -0.2032,1.89653 h -0.59267 q -0.6604,0 -1.33773,0.22013 -0.67733,0.22013 -1.69333,0.6604 l -0.13546,-1.20226 q 0.88053,-0.74507 1.79493,-1.15147 0.91439,-0.42333 1.76106,-0.42333 z"
           style="font-family:'Exo 2';-inkscape-font-specification:'Exo 2, '"
           id="path4637" />
        <path
           d="m 163.83581,410.45655 q 0.57573,0 1.23613,0.0339 0.67733,0.0339 1.3208,0.1016 0.64346,0.0508 1.15146,0.1524 l -0.13547,1.33773 q -0.81279,-0.0169 -1.62559,-0.0339 -0.79587,-0.0339 -1.5748,-0.0339 -0.69427,0 -1.10066,0.0339 -0.38947,0.0339 -0.5588,0.2032 -0.1524,0.16933 -0.1524,0.57573 0,0.49107 0.27093,0.6604 0.27093,0.1524 0.88053,0.3048 l 2.26906,0.52493 q 1.03293,0.254 1.50707,0.77893 0.49106,0.508 0.49106,1.5748 0,1.03293 -0.38946,1.5748 -0.37254,0.52493 -1.20227,0.72813 -0.8128,0.18627 -2.08279,0.18627 -0.49107,0 -1.45627,-0.0508 -0.96519,-0.0339 -2.11666,-0.22014 l 0.13547,-1.33773 q 0.33866,0 0.79586,0.0169 0.47413,0.0169 0.99907,0.0169 0.54186,0 1.10066,0 0.89747,0 1.3716,-0.0508 0.49106,-0.0677 0.67733,-0.254 0.18627,-0.2032 0.18627,-0.57573 0,-0.47414 -0.32174,-0.62654 -0.3048,-0.16933 -0.91439,-0.32173 l -2.21827,-0.54186 q -0.76199,-0.2032 -1.18533,-0.508 -0.42333,-0.32174 -0.6096,-0.77893 -0.18626,-0.47414 -0.18626,-1.15147 0,-0.9144 0.33866,-1.4224 0.3556,-0.50799 1.10067,-0.71119 0.762,-0.2032 1.99813,-0.18627 z"
           style="font-family:'Exo 2';-inkscape-font-specification:'Exo 2, '"
           id="path4639" />
        <path
           d="m 174.09738,407.13762 q 1.54093,0 2.42147,0.33867 0.88053,0.32173 1.25306,1.13453 0.38947,0.79586 0.38947,2.26906 0,1.4732 -0.37254,2.286 -0.3556,0.8128 -1.20226,1.13453 -0.82973,0.32173 -2.21826,0.32173 -0.762,0 -1.4732,-0.0508 -0.69426,-0.0508 -1.30386,-0.13547 -0.59267,-0.0847 -1.016,-0.16933 -0.42333,-0.1016 -0.59267,-0.16933 l 0.0508,-1.13453 q 0.9652,0 1.9812,0 1.03293,0 2.04893,0 0.74506,-0.0169 1.1684,-0.18627 0.44026,-0.16933 0.60959,-0.6096 0.18627,-0.4572 0.18627,-1.28693 0,-0.82973 -0.18627,-1.27 -0.16933,-0.45719 -0.60959,-0.62653 -0.42334,-0.18626 -1.1684,-0.18626 -1.49013,0 -2.55693,0.0169 -1.0668,0.0169 -1.45626,0.0508 l -0.23707,-1.5748 q 0.67733,-0.0677 1.27,-0.1016 0.6096,-0.0339 1.30386,-0.0339 0.7112,-0.0169 1.71026,-0.0169 z m -2.16746,0.1524 V 418.974 h -2.11666 v -11.68398 z"
           style="font-family:'Exo 2';-inkscape-font-specification:'Exo 2, '"
           id="path4641" />
        <path
           d="m 181.51418,410.65975 0.27094,1.6256 0.18626,0.23706 v 6.45159 h -2.04893 v -8.31425 z m 4.064,-0.2032 -0.2032,1.89653 h -0.59267 q -0.6604,0 -1.33773,0.22013 -0.67733,0.22013 -1.69333,0.6604 l -0.13547,-1.20226 q 0.88053,-0.74507 1.79493,-1.15147 0.9144,-0.42333 1.76107,-0.42333 z"
           style="font-family:'Exo 2';-inkscape-font-specification:'Exo 2, '"
           id="path4643" />
        <path
           d="m 190.55657,410.45655 q 1.524,0 2.42146,0.42333 0.9144,0.42333 1.30387,1.38853 0.40639,0.9652 0.40639,2.55693 0,1.59173 -0.40639,2.55693 -0.38947,0.94826 -1.30387,1.38853 -0.89746,0.42333 -2.42146,0.42333 -1.49013,0 -2.40453,-0.42333 -0.89746,-0.44027 -1.30386,-1.38853 -0.4064,-0.9652 -0.4064,-2.55693 0,-1.59173 0.4064,-2.55693 0.4064,-0.9652 1.30386,-1.38853 0.9144,-0.42333 2.40453,-0.42333 z m 0,1.55786 q -0.74507,0 -1.18533,0.254 -0.42333,0.23707 -0.6096,0.84667 -0.18627,0.6096 -0.18627,1.71026 0,1.10067 0.18627,1.71026 0.18627,0.6096 0.6096,0.84667 0.44026,0.23707 1.18533,0.23707 0.762,0 1.20226,-0.23707 0.44027,-0.23707 0.6096,-0.84667 0.18627,-0.60959 0.18627,-1.71026 0,-1.10066 -0.18627,-1.71026 -0.16933,-0.6096 -0.6096,-0.84667 -0.44026,-0.254 -1.20226,-0.254 z"
           style="font-family:'Exo 2';-inkscape-font-specification:'Exo 2, '"
           id="path4645" />
        <path
           d="m 201.78335,410.45655 q 1.55786,0 2.21826,1.13453 0.67733,1.13453 0.67733,3.28506 0,1.64253 -0.3556,2.5908 -0.33867,0.93133 -1.03293,1.33773 -0.69427,0.38946 -1.76106,0.38946 -0.84667,0 -1.65947,-0.23706 -0.79586,-0.254 -1.47319,-0.77894 l 0.13546,-1.01599 q 0.6604,0.18626 1.18533,0.32173 0.52493,0.13547 1.15147,0.13547 0.62653,0 0.98213,-0.2032 0.37253,-0.22014 0.54186,-0.8128 0.16934,-0.59267 0.16934,-1.71027 0,-1.10066 -0.1524,-1.71026 -0.1524,-0.6096 -0.508,-0.84666 -0.33867,-0.254 -0.89747,-0.254 -0.6096,0 -1.15146,0.27093 -0.54187,0.254 -1.25307,0.762 l -0.23706,-1.08373 q 0.38946,-0.4572 0.93133,-0.8128 0.5588,-0.3556 1.20226,-0.5588 0.64347,-0.2032 1.28694,-0.2032 z m -3.5052,0.2032 0.2032,1.60866 0.18627,0.23707 v 5.36785 l -0.0847,0.2032 q 0.0508,0.49107 0.0677,0.98214 0.0169,0.50799 0.0169,1.03293 v 2.18439 h -2.04893 v -11.61624 z"
           style="font-family:'Exo 2';-inkscape-font-specification:'Exo 2, '"
           id="path4647" />
        <path
           d="m 209.64038,410.45655 q 0.57573,0 1.23613,0.0339 0.67733,0.0339 1.3208,0.1016 0.64346,0.0508 1.15146,0.1524 l -0.13546,1.33773 q -0.8128,-0.0169 -1.6256,-0.0339 -0.79586,-0.0339 -1.5748,-0.0339 -0.69426,0 -1.10066,0.0339 -0.38947,0.0339 -0.5588,0.2032 -0.1524,0.16933 -0.1524,0.57573 0,0.49107 0.27093,0.6604 0.27094,0.1524 0.88053,0.3048 l 2.26907,0.52493 q 1.03293,0.254 1.50706,0.77893 0.49107,0.508 0.49107,1.5748 0,1.03293 -0.38947,1.5748 -0.37253,0.52493 -1.20226,0.72813 -0.8128,0.18627 -2.0828,0.18627 -0.49107,0 -1.45626,-0.0508 -0.9652,-0.0339 -2.11667,-0.22014 l 0.13547,-1.33773 q 0.33867,0 0.79587,0.0169 0.47413,0.0169 0.99906,0.0169 0.54187,0 1.10066,0 0.89747,0 1.3716,-0.0508 0.49107,-0.0677 0.67733,-0.254 0.18627,-0.2032 0.18627,-0.57573 0,-0.47414 -0.32173,-0.62654 -0.3048,-0.16933 -0.9144,-0.32173 l -2.21826,-0.54186 q -0.762,-0.2032 -1.18533,-0.508 -0.42334,-0.32174 -0.6096,-0.77893 -0.18627,-0.47414 -0.18627,-1.15147 0,-0.9144 0.33867,-1.4224 0.3556,-0.50799 1.10066,-0.71119 0.762,-0.2032 1.99813,-0.18627 z"
           style="font-family:'Exo 2';-inkscape-font-specification:'Exo 2, '"
           id="path4649" />
      </g>
    </g>
  </g>
</svg>
